<?xml version="1.0" standalone="no"?>
<!DOCTYPE svg PUBLIC "-//W3C//DTD SVG 20010904//EN"
 "http://www.w3.org/TR/2001/REC-SVG-20010904/DTD/svg10.dtd">
<svg version="1.0" xmlns="http://www.w3.org/2000/svg"
 width="447.000000pt" height="447.000000pt" viewBox="0 0 447.000000 447.000000"
 preserveAspectRatio="xMidYMid meet">
<metadata>
Created by potrace 1.14, written by Peter Selinger 2001-2017
</metadata>
<g transform="translate(0.000000,447.000000) scale(0.100000,-0.100000)"
fill="#000000" stroke="none">
<path d="M1922 3619 c-23 -12 -62 -44 -87 -71 -57 -63 -82 -142 -94 -294 -12
-156 -57 -247 -136 -276 -33 -11 -35 -14 -35 -60 0 -44 2 -49 33 -62 81 -35
125 -121 138 -275 15 -169 35 -232 101 -307 36 -41 118 -84 161 -84 26 0 27 2
27 50 0 47 -2 50 -25 50 -41 0 -102 37 -129 77 -31 45 -42 99 -55 264 -11 141
-32 207 -82 255 l-29 28 29 30 c17 17 39 52 50 77 21 47 41 183 41 281 0 76
32 159 76 197 32 29 48 36 99 43 16 3 21 12 23 51 l3 47 -33 0 c-18 0 -52 -9
-76 -21z"/>
<path d="M2452 3593 c3 -46 4 -48 38 -54 51 -8 77 -25 110 -70 34 -48 45 -99
59 -270 10 -141 32 -207 82 -255 l29 -28 -29 -30 c-52 -54 -73 -118 -83 -251
-12 -165 -23 -222 -53 -267 -27 -41 -89 -78 -130 -78 -23 0 -25 -3 -25 -50 0
-48 1 -50 28 -50 40 0 126 46 161 86 64 72 84 135 100 311 14 148 58 235 139
269 30 13 32 18 32 62 0 46 -2 49 -35 60 -18 7 -46 27 -61 45 -47 56 -64 110
-79 253 -11 103 -21 150 -41 195 -43 94 -137 169 -214 169 -31 0 -31 0 -28
-47z"/>
<path d="M1085 1972 c-102 -48 -155 -131 -155 -243 0 -160 125 -270 293 -257
99 8 177 60 223 148 28 52 26 172 -3 226 -51 96 -120 137 -238 141 -62 3 -89
-1 -120 -15z m180 -46 c123 -37 176 -174 115 -296 -34 -67 -92 -100 -179 -100
-71 0 -106 12 -145 48 -93 87 -85 253 15 319 64 42 120 51 194 29z"/>
<path d="M1635 1977 c-54 -25 -85 -72 -85 -129 0 -43 4 -54 33 -83 32 -32 57
-42 186 -75 61 -16 95 -52 87 -93 -7 -38 -26 -54 -80 -68 -49 -13 -133 1 -184
32 -28 16 -37 17 -44 7 -28 -43 51 -89 163 -96 66 -4 85 -1 124 18 77 37 105
111 70 180 -19 37 -66 61 -172 90 -99 26 -125 48 -121 97 5 55 42 78 126 78
45 -1 78 -7 101 -19 33 -18 35 -18 48 0 19 26 17 32 -19 51 -44 22 -191 29
-233 10z"/>
<path d="M2171 1968 c-5 -13 -54 -121 -110 -242 -125 -273 -120 -256 -82 -256
29 0 33 5 62 70 l32 71 139 -3 139 -3 29 -65 c25 -58 32 -65 59 -68 17 -2 31
1 31 6 0 5 -51 122 -114 258 -111 244 -114 249 -145 252 -25 3 -33 -1 -40 -20z
m101 -183 l56 -125 -115 0 c-105 0 -115 1 -109 18 17 47 102 231 106 232 3 0
30 -56 62 -125z"/>
<path d="M2550 1729 l0 -261 148 4 c161 5 194 14 257 70 58 51 80 101 80 188
0 85 -15 122 -73 183 -58 60 -119 77 -277 77 l-135 0 0 -261z m315 182 c122
-55 150 -226 54 -322 -47 -47 -89 -59 -211 -59 l-98 0 0 200 0 200 108 0 c82
0 116 -5 147 -19z"/>
<path d="M3182 1742 c-62 -136 -116 -253 -119 -259 -3 -9 5 -13 29 -13 33 0
35 3 64 70 l29 70 140 0 140 -1 32 -69 c30 -65 34 -70 63 -70 18 0 30 4 28 9
-1 5 -55 122 -118 260 -113 248 -115 251 -145 251 -30 0 -32 -4 -143 -248z
m202 48 l55 -125 -60 -3 c-33 -2 -84 -2 -113 0 l-53 3 55 127 c31 70 57 126
58 125 1 -1 27 -58 58 -127z"/>
<path d="M706 1109 c-19 -15 -26 -30 -26 -54 0 -38 30 -68 97 -99 47 -21 58
-38 42 -67 -8 -16 -19 -19 -57 -17 -43 3 -47 5 -50 31 -5 43 -36 32 -40 -14
-3 -30 1 -37 23 -47 14 -7 48 -12 74 -12 39 0 53 5 75 26 28 29 33 68 12 96
-7 10 -39 32 -72 51 -84 47 -85 87 -1 87 33 0 37 -3 37 -26 0 -19 5 -25 18
-22 21 4 29 53 11 74 -19 23 -111 19 -143 -7z"/>
<path d="M2685 1108 c-77 -60 -71 -229 10 -266 32 -15 90 -16 116 -2 28 16 27
70 -2 70 -17 0 -20 -5 -16 -21 5 -18 1 -20 -35 -17 -56 4 -80 37 -80 108 0 68
25 104 75 108 34 3 37 1 37 -22 0 -19 5 -26 20 -26 17 0 20 7 20 39 0 44 -10
51 -74 51 -29 0 -52 -7 -71 -22z"/>
<path d="M3240 1110 c0 -11 7 -20 15 -20 9 0 15 -9 15 -23 0 -20 -4 -23 -34
-19 -38 4 -90 -19 -106 -47 -5 -11 -10 -43 -10 -71 0 -41 5 -56 25 -75 29 -30
89 -34 117 -8 17 15 18 15 18 0 0 -12 9 -17 30 -17 23 0 30 4 30 20 0 11 -7
20 -15 20 -13 0 -15 21 -15 130 l0 130 -35 0 c-28 0 -35 -4 -35 -20z m30 -159
c0 -51 -3 -62 -22 -75 -30 -21 -44 -20 -68 4 -25 25 -27 86 -3 112 10 11 30
18 55 18 l38 0 0 -59z"/>
<path d="M950 1071 c0 -13 -8 -21 -22 -23 -34 -5 -37 -38 -4 -38 25 0 26 -2
26 -64 0 -83 23 -116 81 -116 48 0 79 15 79 37 0 11 -5 14 -22 8 -36 -12 -79
-9 -89 6 -5 8 -9 40 -9 72 l0 57 56 0 c47 0 55 3 52 18 -2 13 -15 18 -56 20
-44 3 -52 6 -52 23 0 12 -7 19 -20 19 -13 0 -20 -7 -20 -19z"/>
<path d="M1160 1030 c0 -15 7 -20 25 -20 24 0 25 -2 25 -70 0 -68 -1 -70 -25
-70 -18 0 -25 -5 -25 -20 0 -18 7 -20 85 -20 78 0 85 2 85 20 0 17 -7 20 -40
20 l-40 0 0 53 c0 41 5 58 19 71 25 23 55 17 59 -12 5 -31 42 -31 42 1 0 56
-52 84 -97 52 -19 -13 -22 -13 -27 0 -3 10 -19 15 -46 15 -33 0 -40 -3 -40
-20z"/>
<path d="M1452 1039 c-51 -15 -34 -34 29 -34 48 0 54 -2 57 -22 3 -20 -1 -23
-33 -23 -37 0 -74 -14 -87 -34 -14 -20 -8 -63 10 -79 21 -19 82 -23 99 -6 8 8
13 8 17 0 11 -17 66 -14 66 4 0 9 -7 18 -15 21 -11 5 -15 23 -15 74 0 62 -2
71 -26 89 -29 23 -50 25 -102 10z m77 -118 c19 -12 7 -39 -23 -53 -28 -12 -56
2 -56 29 0 23 54 40 79 24z"/>
<path d="M1630 1030 c0 -11 7 -20 15 -20 12 0 15 -17 15 -90 0 -83 1 -90 20
-90 18 0 20 7 20 75 0 68 2 76 24 91 14 8 35 14 48 12 21 -3 23 -9 28 -88 5
-77 7 -85 25 -85 17 0 20 8 23 55 8 136 -40 190 -128 145 -27 -14 -30 -14 -30
0 0 10 -10 15 -30 15 -23 0 -30 -4 -30 -20z"/>
<path d="M1948 1034 c-37 -20 -48 -43 -48 -104 0 -41 5 -56 25 -75 27 -27 91
-35 113 -13 9 9 12 6 12 -15 0 -38 -37 -54 -86 -39 -29 9 -36 8 -41 -4 -9 -25
14 -38 67 -38 38 0 55 5 75 24 24 23 25 28 25 146 0 118 -1 122 -22 128 -39
10 -92 6 -120 -10z m102 -83 c0 -51 -3 -62 -22 -75 -30 -21 -44 -20 -68 4 -25
25 -27 86 -3 112 10 11 30 18 55 18 l38 0 0 -59z"/>
<path d="M2191 1036 c-33 -18 -50 -53 -51 -104 0 -35 6 -49 30 -74 29 -28 35
-30 86 -26 59 5 89 24 75 47 -7 10 -13 11 -30 1 -33 -17 -79 -15 -101 5 -39
35 -26 45 60 45 l80 0 0 31 c0 67 -85 110 -149 75z m99 -46 c10 -19 8 -20 -50
-20 -33 0 -60 2 -60 4 0 3 7 12 16 20 23 23 81 21 94 -4z"/>
<path d="M2923 1038 c-24 -12 -53 -64 -53 -97 0 -34 26 -88 48 -100 26 -14 87
-14 113 -1 42 23 61 102 37 155 -21 47 -92 68 -145 43z m106 -62 c10 -23 11
-37 2 -66 -13 -46 -49 -60 -87 -35 -20 13 -24 24 -24 63 0 58 14 74 60 70 27
-2 38 -9 49 -32z"/>
<path d="M3407 1030 c-30 -24 -49 -81 -40 -119 3 -14 17 -38 31 -53 20 -22 35
-28 68 -28 48 0 94 17 94 35 0 20 -12 25 -33 14 -26 -15 -84 -14 -102 1 -8 7
-15 21 -15 31 0 17 8 19 74 19 41 0 78 5 81 10 10 17 -15 79 -38 95 -31 22
-89 19 -120 -5z m113 -40 c10 -19 8 -20 -50 -20 -33 0 -60 4 -60 8 0 35 92 45
110 12z"/>
<path d="M3652 1034 c-25 -17 -30 -65 -8 -83 7 -6 37 -18 65 -27 38 -11 51
-20 51 -34 0 -27 -51 -36 -92 -16 -25 13 -33 14 -40 4 -12 -20 -10 -24 17 -36
37 -17 107 -15 133 4 27 19 29 64 5 87 -10 8 -40 21 -66 28 -35 8 -47 16 -45
28 3 13 16 16 60 15 66 -1 86 18 36 35 -44 15 -90 14 -116 -5z"/>
</g>
</svg>
